<svg xmlns="http://www.w3.org/2000/svg" viewBox="0 0 1916.576 493.486">
  <defs>
    <style>
      .cls-1 {
        fill: #fff;
      }
    </style>
  </defs>
  <title>logo_renato</title>
  <g id="Layer_2" data-name="Layer 2">
    <g id="Layer_17" data-name="Layer 17">
      <g>
        <path d="M1055.876,131.964H548.713a574.9,574.9,0,0,0-4.566-112.6A22.416,22.416,0,0,0,522.025,0a22.171,22.171,0,0,0-8.014,1.5c-47.5,18.346-97.686,59.213-157.616,128.417-18.034-3.527-55.172-7.982-78.31-7.982q-1.6,0-3.109.029h-.3c-1-.019-2.041-.029-3.109-.029-23.137,0-60.276,4.454-78.309,7.981C133.327,60.713,83.145,19.846,35.642,1.5A22.166,22.166,0,0,0,27.629,0,22.415,22.415,0,0,0,5.505,19.367C-.926,66.994-1.727,113.259,3.126,156.876l.956,8.593,8.64.3q2.166.074,4.312.175-3.691,2.661-7.12,5.459l-4.463,3.645.915,5.689a488.568,488.568,0,0,0,18.451,75.574c6.533,42.876,14.374,76.3,23.964,102.162,10.625,28.648,23.2,47.273,38.439,56.94,5.855,3.677,15.681,6.862,29.283,11.272,13.861,4.494,31.111,10.087,49.655,17.984,14.022,5.971,24.31,13.783,34.26,21.338,17.794,13.511,36.195,27.483,72.158,27.483.744,0,1.49-.006,2.251-.018q1.137.018,2.25.018c35.968,0,54.366-13.971,72.159-27.483,9.949-7.554,20.236-15.366,34.258-21.338,18.544-7.9,35.795-13.49,49.656-17.984,13.6-4.409,23.428-7.595,29.244-11.248,10.607-6.727,19.909-17.765,28.161-33.469H1916.576v-250Z"/>
        <path class="cls-1" d="M27.628,17a4.225,4.225,0,0,1,1.529.292C74.8,34.921,123.848,75.555,183.5,145.17l3.249,3.792,4.833-1.254c7.96-2.063,30.253-5.387,52.048-7.3L66.018,352.15c-9.275-24.741-17.174-58.419-23.532-100.384l-.1-.677-.216-.65A470.46,470.46,0,0,1,24.907,181.5a153.37,153.37,0,0,1,23.5-14.541,9.306,9.306,0,0,0-2.938-17.525c-8.059-1.094-16.495-1.883-25.161-2.353-3.883-40.159-2.865-82.611,3.036-126.309A4.358,4.358,0,0,1,27.628,17h0m0-8A12.36,12.36,0,0,0,15.416,19.7c-6.6,48.865-6.964,93.61-2.351,135.066a311.759,311.759,0,0,1,31.327,2.594,1.305,1.305,0,0,1,.406,2.457,156.669,156.669,0,0,0-28.559,18.323,475.657,475.657,0,0,0,18.337,74.819c7.4,48.863,16.93,87.516,29.066,114.467L261.826,131.165c-25.464,1.093-60.834,5.84-72.25,8.8C137.4,79.069,84.984,30.276,32.039,9.829A12.2,12.2,0,0,0,27.628,9Z"/>
        <path class="cls-1" d="M81.981,396.89a56.126,56.126,0,0,0,7.878,7.188L317.14,133.465c-4.287-.456-8.62-.869-12.885-1.227Z"/>
        <path class="cls-1" d="M277.265,130.939,69.233,378.633a112.677,112.677,0,0,0,6.079,9.863L291.3,131.335C286.224,131.063,281.468,130.918,277.265,130.939Z"/>
        <ellipse class="cls-1" cx="382.685" cy="335.964" rx="14.75" ry="33"/>
        <path class="cls-1" d="M534.237,19.7a12.328,12.328,0,0,0-16.624-9.876c-52.945,20.447-105.355,69.24-157.537,130.135-.113-.029-.246-.06-.364-.089L125.928,418.231c12.764,4.173,27.965,9.342,44.148,16.233,41.5,17.673,50.973,48.9,104.75,48,53.777.9,63.253-30.33,104.75-48,36.182-15.408,67.494-22.217,77.5-28.5,26.951-17.094,45.5-70.5,58-153C537.434,185.767,546.392,109.713,534.237,19.7Zm-130.6,364.759a110.022,110.022,0,0,1-38.839,3.709c-33.106-2.484-56.94-9.023-73.22-18.863a4.132,4.132,0,0,1-1.3-5.868c41.552-61.286,96.548-87.114,164.076-79.89a4.438,4.438,0,0,1,3.918,4.061C463.011,343.54,442.318,373.267,403.641,384.464Z"/>
        <g>
          <path class="cls-1" d="M619.049,149a54.807,54.807,0,0,1,18.46,2.747,32.033,32.033,0,0,1,12.45,7.728,29.363,29.363,0,0,1,6.954,11.934,52.55,52.55,0,0,1,2.147,15.541q0,10.82-3.606,18.632a26.579,26.579,0,0,1-11.678,12.278l23.7,39.153v2.919H630.382l-19.061-36.748h-6.01v36.748H570.966V149Zm-2.49,47.824a10.759,10.759,0,0,0,4.035-1.2,5.922,5.922,0,0,0,2.576-2.833,13.225,13.225,0,0,0,.858-5.324,15.272,15.272,0,0,0-.772-5.409,5.586,5.586,0,0,0-2.4-2.919,10.157,10.157,0,0,0-4.036-1.2,53.952,53.952,0,0,0-5.666-.258h-5.839v19.405h5.839A49.589,49.589,0,0,0,616.559,196.824Z"/>
          <path class="cls-1" d="M754.71,149v28.677H711.437v13.566h27.3v25.93h-27.3v14.253h45.505v28.506H676.576V149Z"/>
          <path class="cls-1" d="M800.219,149l33.657,50.314V149H866.16V259.932H836.28l-33.486-50.143v50.143h-31.94V149Z"/>
          <path class="cls-1" d="M908.405,149h41.386l34.344,108.357v2.575H948.417l-4.637-17.343H912.012l-4.465,17.343H874.061v-2.575Zm19.577,35.375L919.4,216.658h17Z"/>
          <path class="cls-1" d="M976.237,177.677V149H1064.5v28.677H1037.37v82.255h-34.859V177.677Z"/>
          <path class="cls-1" d="M1097.391,259.589a35.934,35.934,0,0,1-15.627-9.1q-6.611-6.525-10.3-17.687t-3.691-28.334q0-16.485,4.121-27.562t10.99-17.773a39.467,39.467,0,0,1,15.8-9.53,60.386,60.386,0,0,1,18.374-2.834,72.3,72.3,0,0,1,19.748,2.576,35.924,35.924,0,0,1,15.713,9.1q6.611,6.526,10.3,17.687t3.693,28.335q0,16.485-4.121,27.561T1151.312,249.8a40.164,40.164,0,0,1-15.885,9.531,60.386,60.386,0,0,1-18.374,2.834A71.358,71.358,0,0,1,1097.391,259.589Zm26.1-26.617a7.254,7.254,0,0,0,4.207-3.864,26.908,26.908,0,0,0,2.233-8.844,142.162,142.162,0,0,0,.687-15.8,139.736,139.736,0,0,0-.687-15.712A26.724,26.724,0,0,0,1127.7,180a7.257,7.257,0,0,0-4.207-3.864,24.917,24.917,0,0,0-12.965,0,7.291,7.291,0,0,0-4.121,3.864,26.752,26.752,0,0,0-2.232,8.759,139.7,139.7,0,0,0-.688,15.712,142.121,142.121,0,0,0,.688,15.8,26.937,26.937,0,0,0,2.232,8.844,7.288,7.288,0,0,0,4.121,3.864,24.889,24.889,0,0,0,12.965,0Z"/>
          <path class="cls-1" d="M1256.835,149l17.345,52.031L1291.7,149h43.446V259.932H1302V193.648l-17.858,50.829h-22.668l-17.86-50.829v66.284h-32.97V149Z"/>
          <path class="cls-1" d="M1377.387,149h41.385l34.344,108.357v2.575H1417.4l-4.637-17.343h-31.769l-4.465,17.343h-33.486v-2.575Zm19.576,35.375-8.586,32.283h17Z"/>
          <path class="cls-1" d="M1493.3,177.677h-35.2V149h79.335v24.041l-36.92,58.385h39.152v28.506h-82.6v-21.98Z"/>
          <path class="cls-1" d="M1583.282,177.677h-35.2V149h79.335v24.041l-36.92,58.385h39.153v28.506h-82.6v-21.98Z"/>
          <path class="cls-1" d="M1677.73,149V259.932h-34.861V149Z"/>
          <path class="cls-1" d="M1731.65,149v81.739h39.5v29.193h-74.357V149Z"/>
          <path class="cls-1" d="M1816.311,149v81.739h39.5v29.193H1781.45V149Z"/>
          <path class="cls-1" d="M1901.143,149V259.932h-34.861V149Z"/>
        </g>
        <g>
          <path class="cls-1" d="M644.781,282.505h8.531v86.129h-8.531Zm6.042,78.192h39.511v7.937H650.823Z"/>
          <path class="cls-1" d="M701.885,282.505h8.53v86.129h-8.53Zm5.864,0h40.28v7.938h-40.28Zm0,39.392h35.542v7.938H707.749Zm0,38.8h40.28v7.937h-40.28Z"/>
          <path class="cls-1" d="M753.953,282.505h9l19.489,75.23,19.489-75.23h9L787.3,368.634h-9.714Z"/>
          <path class="cls-1" d="M821.009,282.505h8.53v86.129h-8.53Zm5.864,0h40.28v7.938h-40.28Zm0,39.392h35.542v7.938H826.873Zm0,38.8h40.28v7.937h-40.28Z"/>
          <path class="cls-1" d="M880.186,282.505h8.53v86.129h-8.53Zm6.042,78.192h39.51v7.937h-39.51Z"/>
          <path class="cls-1" d="M965.781,282.505h8.531v86.129h-8.531Zm6.338,78.192h20.259q7.582,0,11.344-3.7t3.761-11.048V305.193q0-7.344-3.761-11.048t-11.344-3.7H972.119v-7.938h19.9a30.585,30.585,0,0,1,13.3,2.577,17.256,17.256,0,0,1,8.057,7.759,27.45,27.45,0,0,1,2.694,12.766v39.925a27.007,27.007,0,0,1-2.724,12.736,17.6,17.6,0,0,1-8.086,7.76,30.285,30.285,0,0,1-13.3,2.606H972.119Z"/>
          <path class="cls-1" d="M1030.586,282.505h8.53v86.129h-8.53Zm5.864,0h40.281v7.938H1036.45Zm0,39.392h35.542v7.938H1036.45Zm0,38.8h40.281v7.937H1036.45Z"/>
          <path class="cls-1" d="M1106.053,369.523l-5.273-1.807a20.9,20.9,0,0,1-8.855-5.746,22.966,22.966,0,0,1-5.124-10.1l8.115-3.022q1.778,6.7,6.457,9.715a20.859,20.859,0,0,0,11.551,3.022q8.589,0,13.15-3.733t4.562-10.84v-2.488a12.083,12.083,0,0,0-2.251-7.522,15.379,15.379,0,0,0-5.746-4.622,79.65,79.65,0,0,0-9.122-3.494c-.08-.039-.169-.089-.267-.148a1.646,1.646,0,0,0-.326-.149l-1.6-.414a92.548,92.548,0,0,1-11.787-4.472,20.04,20.04,0,0,1-7.553-6.309q-3.051-4.146-3.05-11.077v-2.133a23.871,23.871,0,0,1,2.962-12.35,18.878,18.878,0,0,1,8.648-7.612,33.64,33.64,0,0,1,14.039-2.606,30.822,30.822,0,0,1,11.107,1.777,17.858,17.858,0,0,1,7.582,5.479,27.244,27.244,0,0,1,4.709,9.626l-8,2.843q-1.954-6.159-5.686-8.974a15.72,15.72,0,0,0-9.715-2.814q-8.412,0-12.854,3.673t-4.443,10.6v2.133a10.745,10.745,0,0,0,2.518,7.4,17.325,17.325,0,0,0,6.249,4.443,96.9,96.9,0,0,0,10.07,3.494,1.724,1.724,0,0,1,.5.178,2.021,2.021,0,0,0,.386.178,2.139,2.139,0,0,1,.592.178,2,2,0,0,0,.533.177,60.683,60.683,0,0,1,10.81,4.384,20.444,20.444,0,0,1,7.257,6.693q2.9,4.326,2.9,11.078v2.784a24.029,24.029,0,0,1-2.992,12.41,18.491,18.491,0,0,1-8.856,7.612,35.964,35.964,0,0,1-14.335,2.547Z"/>
          <path class="cls-1" d="M1162.15,368.634h-8.589V282.505h8.589Z"/>
          <path class="cls-1" d="M1230.507,323.437v18.9q0,8.885-2.872,14.957a19.674,19.674,0,0,1-8.56,9.152,29.035,29.035,0,0,1-13.98,3.08,31.386,31.386,0,0,1-14.187-2.9A19.1,19.1,0,0,1,1182.23,358a30.846,30.846,0,0,1-2.9-14.069V308.747q0-8.886,2.873-14.928a19.7,19.7,0,0,1,8.56-9.122,29.036,29.036,0,0,1,13.979-3.08,27.494,27.494,0,0,1,13.121,2.843,20.109,20.109,0,0,1,8.323,8.5,35.323,35.323,0,0,1,3.614,14.246h-9.241a26.9,26.9,0,0,0-2.518-9.715,13.853,13.853,0,0,0-5.3-5.864,15.488,15.488,0,0,0-8-1.956,18.31,18.31,0,0,0-9.3,2.193,13.641,13.641,0,0,0-5.687,6.4,25.508,25.508,0,0,0-1.895,10.485v35.186a21.255,21.255,0,0,0,1.955,9.626,13.216,13.216,0,0,0,5.775,5.894,20.223,20.223,0,0,0,9.507,2.013,18.254,18.254,0,0,0,9.181-2.1,13.193,13.193,0,0,0,5.54-6.279,25.838,25.838,0,0,0,1.865-10.514V331.316H1205.1v-7.879Z"/>
          <path class="cls-1" d="M1245.021,282.505h8.293l38.622,74.1-2.489-.414v-73.69h8.531v86.07h-8.471l-39.036-74.4,3.02.889v73.512h-8.47Z"/>
          <path class="cls-1" d="M1314.564,282.505h8.53v86.129h-8.53Zm5.864,0h40.28v7.938h-40.28Zm0,39.392h35.542v7.938h-35.542Zm0,38.8h40.28v7.937h-40.28Z"/>
          <path class="cls-1" d="M1373.74,282.446h8.531v86.188h-8.531Zm5.273,41.82H1401.7a15.124,15.124,0,0,0,7.463-1.776,12.044,12.044,0,0,0,4.917-5.066,16.334,16.334,0,0,0,1.718-7.67v-4.561a17.258,17.258,0,0,0-1.689-7.819,11.93,11.93,0,0,0-4.886-5.184,15.054,15.054,0,0,0-7.523-1.807h-22.687v-7.937h22.1a26.922,26.922,0,0,1,12.35,2.666,18.747,18.747,0,0,1,8.057,7.7,23.914,23.914,0,0,1,2.813,11.848V309.7a24.368,24.368,0,0,1-2.813,11.965,19,19,0,0,1-8.057,7.819,26.416,26.416,0,0,1-12.35,2.726h-22.1Zm22.687,5.273,7.76-2.725,17.889,41.82h-10.071Z"/>
        </g>
      </g>
    </g>
  </g>
</svg>
